<svg width="808" height="718" viewBox="0 0 808 718" fill="none" xmlns="http://www.w3.org/2000/svg">
<path d="M46.4754 349.28C51.1544 347.444 53.0429 343.083 51.1967 338.377L46.889 327.395C49.3929 324.603 54.7085 319.802 51.9603 308.209C49.2122 296.616 37.3504 303.079 39.5043 308.57C41.3505 313.276 38.9302 322.414 28.7088 320.045C22.2271 318.543 23.1085 308.062 24.1146 303.745C25.2445 295.156 17.6733 289.619 12.3164 296.607C8.74509 301.266 7.73832 310.169 13.4413 322.414C17.9947 332.19 28.4332 334.635 33.4676 334.47L37.4676 344.667C39.0061 348.589 41.7965 351.115 46.4754 349.28Z" fill="#8E4C2F"/>
<path d="M100.18 343.263C94.9302 343.263 91.4301 339.763 91.4301 334.513V322.263C87.9301 320.513 80.9301 317.888 79.1801 305.638C77.4302 293.388 91.4301 295.138 91.4301 301.263C91.4301 306.513 100.18 314.388 106.305 308.263C111.205 303.363 107.18 294.554 104.555 290.763C100.18 282.888 105.43 274.663 113.305 279.388C118.555 282.538 122.93 290.763 122.055 304.763C121.357 315.941 112.138 322.263 107.18 324.013V335.388C107.18 339.763 105.43 343.263 100.18 343.263Z" fill="#8E4C2F"/>
<path d="M97.5552 587.388L87.9302 567.263C101.639 554.429 130.105 535.938 134.305 564.638C139.555 600.513 123.805 598.763 115.055 598.763C108.055 598.763 100.472 591.179 97.5552 587.388Z" fill="#A75A41"/>
<path d="M192.656 444.348C197.564 454.268 211.466 503.576 184.214 510.888C175.929 513.111 162.277 520.588 159.783 493.958C156.107 454.715 183.507 442.083 192.656 444.348Z" fill="#AE5E45"/>
<path d="M30.1804 561.137C46.8055 573.387 58.7637 553.554 62.5554 543.637C62.5554 543.637 41.5555 438.637 38.9302 480.638C36.305 522.638 13.5553 548.887 30.1804 561.137Z" fill="#AE5E45"/>
<path d="M113.305 590.888V570.763L156.18 557.638L153.555 594.388C152.389 599.638 146.555 610.138 132.555 610.138C118.555 610.138 113.889 597.304 113.305 590.888Z" fill="#BF6E53"/>
<path d="M0.430217 421.138C14.4302 427.438 23.7636 423.763 26.6802 421.138C35.1386 408.596 46.9802 383.688 26.6802 384.388C1.30522 385.263 -1.31978 410.638 0.430217 421.138Z" fill="#A75A41"/>
<path d="M73.9302 327.513C111.03 320.513 134.305 342.679 141.305 354.638C145.972 352.304 161.43 351.138 169.305 353.763C177.18 356.388 185.18 363.388 178.93 372.138C174.555 378.263 167.555 386.138 152.68 387.013C157.055 448.263 178.93 481.513 185.93 510.388C191.18 541.888 165.805 569.888 108.93 573.388C52.0552 576.888 36.3052 475.388 26.6802 428.138C17.0552 380.888 27.5552 336.263 73.9302 327.513Z" fill="#BF6E53"/>
<path d="M48.5544 426.388C49.2544 438.288 62.5546 439.513 68.6794 436.888C71.0128 440.388 71.3046 448.263 80.9296 446.513C80.9296 441.263 81.5136 435.721 82.6802 434.263C97.5552 430.763 103.68 428.138 101.93 415.013C100.046 400.894 86.1802 401.888 72.1794 405.388C56.6889 409.26 47.6794 411.513 48.5544 426.388Z" fill="#FFC39B"/>
<path d="M82.6802 420.263L65.1802 423.763C65.4719 426.679 67.9802 432.163 75.6802 430.763C83.3802 429.363 83.5552 423.179 82.6802 420.263Z" fill="white"/>
<ellipse cx="71.2536" cy="409.548" rx="8.75" ry="5.25" transform="rotate(-10.7125 71.2536 409.548)" fill="#4A1C00"/>
<ellipse cx="101.93" cy="392.263" rx="5.25" ry="8.75" transform="rotate(-6.29949 101.93 392.263)" fill="#4A1C00"/>
<ellipse cx="48.4496" cy="402.692" rx="4.9875" ry="8.3125" transform="rotate(-10.1409 48.4496 402.692)" fill="#4A1C00"/>
<path d="M93.1802 366.888L108.93 368.638" stroke="#8E4C2F" stroke-width="5.25" stroke-linecap="round"/>
<path d="M48.5552 375.638L38.0552 380.888" stroke="#8E4C2F" stroke-width="5.25" stroke-linecap="round"/>
<path d="M81.8053 459.637C48.5554 471.012 56.4302 494.637 62.5553 523.512C70.4302 553.263 87.0552 569.013 116.805 562.013C140.605 556.413 138.972 528.179 135.18 514.763L128.18 490.263C122.93 462.263 101.055 453.052 81.8053 459.637Z" fill="#FFC39B"/>
<path d="M84.4302 530.513L101.055 538.388" stroke="#BF6E53" stroke-width="3.0625" stroke-linecap="round"/>
<path d="M98.4302 528.763L87.9302 541.013" stroke="#BF6E53" stroke-width="3.0625" stroke-linecap="round"/>
<path d="M208.612 456.149C203.583 465.536 176.111 457.775 166.604 452.551C148.565 443.502 141.97 437.22 143.847 424.035C145.724 410.85 159.064 410.873 166.931 417.541C170.479 420.549 189.877 429.871 198.23 432.365C209.22 435.647 215.964 442.423 208.612 456.149Z" fill="#BF6E53"/>
<path d="M670 544.25V530.25C670 510.125 725.125 520.625 719.875 535.5C714.625 550.375 703.25 560.875 686.625 559.125C673.325 557.725 670 548.625 670 544.25Z" fill="#D02F90"/>
<path d="M784.625 483L780.25 479.5C771.15 454.3 784.042 434 791.625 427C792.5 426.708 796.522 429.142 802.125 442.75C808.25 457.625 810 463.75 802.125 476.875C795.825 487.375 787.833 485.333 784.625 483Z" fill="#D02F90"/>
<path d="M600 476.875C601.4 466.375 621.583 462.583 631.5 461.125C654.6 469.525 648.125 494.958 642 506.625C639.958 506.625 632.2 507.5 617.5 507.5C599.125 507.5 598.25 490 600 476.875Z" fill="#EC4CAD"/>
<path d="M721.497 259.683C723.775 267.75 729.5 289.625 729.5 309.75C743.829 310.735 772.236 320.975 773.25 317.625C774.518 313.438 771.5 273 761 252C750.5 231 738.321 232.413 731.25 233.625C724.179 234.836 716.421 241.714 721.497 259.683Z" fill="#EC4CAD"/>
<path d="M728.625 263.375C733.875 278.25 740.875 300.125 734.75 315C743.871 314.498 754.528 314.422 764.5 314.125C765.525 309.872 764.212 281.126 754.875 256.375C752.088 248.987 744.365 240.759 737.375 242.375C730.385 243.991 726 247.625 728.625 263.375Z" fill="#FFC5DC"/>
<path d="M651.625 259C661.425 273 674.667 301.583 680.5 315.875C694.5 312.667 722.5 305.375 722.5 301.875C722.5 297.5 706.75 262.5 691.875 240.625C679.975 223.125 665.042 225.167 658.625 228.375C652.208 231.583 644.625 245 651.625 259Z" fill="#EC4CAD"/>
<path d="M661.25 259.875C671.05 273.875 681.667 294.583 687.5 308.875C696.25 306.25 703.25 303.625 712.875 301C712.875 296.625 700.625 267.75 685.75 245.875C681.31 239.345 672.042 233.042 665.625 236.25C659.208 239.458 654.25 245.875 661.25 259.875Z" fill="#FFC5DC"/>
<path d="M713.75 537.25C673.15 540.75 646.667 518.292 638.5 506.625C632.375 499.625 621.875 482.125 632.375 460.25C647.075 439.25 653.667 388.5 655.125 365.75C658.625 333.375 667.375 300.125 738.25 300.125C820.5 312.375 796 415.625 793.375 441.875C790.75 468.125 764.5 532.875 713.75 537.25Z" fill="#EC4CAD"/>
<path d="M578.125 439.25C588.417 455.875 626.25 445.958 642 439.25C671.75 427.875 685.75 420 684.875 399C684 378 666.5 374.5 653.375 384.125C644.371 390.728 621.875 395.208 607 399C579.875 403.375 566.75 420.875 578.125 439.25Z" fill="#EC4CAD"/>
<path d="M677 469.875C686.8 448.875 712.583 441.875 724.25 441C735.625 440.416 760.575 448.875 765.375 469.875C772.375 500.5 751.375 522.375 719.875 525C688.911 527.58 664.75 496.125 677 469.875Z" fill="#FFA6C9"/>
<path d="M723.375 490L731.25 505.75" stroke="#FF3888" stroke-width="3.5" stroke-linecap="round"/>
<path d="M719.875 501.375L735.625 495.25" stroke="#FF3888" stroke-width="3.5" stroke-linecap="round"/>
<path d="M693.625 368.375C694.325 352.975 708.208 346.208 715.5 344.75C715.5 337.75 714.625 334.25 713.75 331.625C720.75 333.025 724.833 340.958 726 344.75C733 346.208 747.875 348.25 755.75 349.125C769.75 350.681 787.25 356.125 786.375 378.875C785.675 397.075 771.5 402.792 765.375 403.375C749.625 403.375 714.45 398.475 710.25 396.375C705 393.75 692.75 387.625 693.625 368.375Z" fill="#FFA6C9"/>
<ellipse cx="771.5" cy="374.5" rx="5.25" ry="8.75" fill="#750F4C"/>
<path d="M759.25 381.5H736.5C737.375 389.375 744.375 390.25 750.5 390.25C757.554 390.25 759.25 385 759.25 381.5Z" fill="white"/>
<path d="M718.125 361.375C721.333 362.542 728.1 365.75 729.5 369.25C725.3 369.25 718.417 369.25 715.5 369.25" stroke="#750F4C" stroke-width="3.5" stroke-linecap="round"/>
<path d="M285.826 331.625C290.026 349.125 309.159 354.666 318.201 355.25C330.451 354.375 324.326 339.5 313.826 336.875C305.426 334.775 302.159 329 301.576 325.5C300.701 315 295.451 315 292.826 315C287.576 315 283.096 320.25 285.826 331.625Z" fill="#61A400"/>
<path d="M304.201 383.25C302.801 369.95 314.117 366.042 319.951 365.75L330.451 389.375C322.284 392.875 305.601 396.55 304.201 383.25Z" fill="#61A400"/>
<path d="M319.076 315.875C299.826 328.125 310.325 350 319.076 353.5V377.125C319.076 426.125 398.701 392 401.326 377.125C403.426 365.225 392.284 362.833 386.451 363.125V349.125C389.367 348.833 395.201 344.75 395.201 333.375C395.201 319.375 384.701 313.542 379.451 312.375V304.5C379.451 295.75 374.201 292.25 366.326 292.25C357.226 292.25 356.117 300.417 356.701 304.5H340.951C340.076 297.5 339.201 292.25 328.701 292.25C320.301 292.25 318.784 301 319.076 304.5V315.875Z" fill="#79CB00"/>
<rect x="325.201" y="352.625" width="43.75" height="42" rx="10.5" fill="#B3FF38"/>
<ellipse cx="322.576" cy="329" rx="7.875" ry="7.875" fill="#9BE030"/>
<ellipse cx="380.326" cy="329" rx="7.875" ry="7.875" fill="#9BE030"/>
<path d="M357.576 322.875H339.201C339.201 326.375 339.201 332.5 348.826 332.5C358.451 332.5 356.992 326.083 357.576 322.875Z" fill="white"/>
<path d="M361.076 311.5H369.826" stroke="#3C3C3C" stroke-width="4.375" stroke-linecap="round"/>
<ellipse cx="331.326" cy="311.5" rx="4.375" ry="6.125" fill="#3C3C3C"/>
<path d="M395.403 680.266L397.446 662.642C400.384 637.308 327.807 636.745 332.245 656.237C336.683 675.729 347.12 702.612 372.303 696.565C388.783 692.607 394.764 685.773 395.403 680.266Z" fill="#FFA01F"/>
<path d="M269.245 567.862L276.245 553.862C284.995 534.612 271.645 524.832 263.12 514.913C257.87 512.737 238.62 510.112 228.995 514.913C217.62 523.214 214.12 538.112 221.12 553.862C228.995 567.862 253.495 567.862 269.245 567.862L269.245 567.862Z" fill="#FFA01F"/>
<path d="M511.62 612.487C508.708 599.383 493.245 594.987 480.224 585.28C449.075 585.488 447.142 624.83 449.495 641.362C451.933 642.23 463.495 650.987 480.224 653.612C507.245 657.852 515.12 628.237 511.62 612.487Z" fill="#FFBE2E"/>
<path d="M299.87 398.112C301.462 424.114 281.541 435.377 272.109 437.273C257.214 426.068 260.227 410.776 263.995 405.112C274.495 393.737 280.885 391.972 299.87 398.112Z" fill="#E57C17"/>
<path d="M513.37 461.113C497.37 447.113 471.37 455.862 464.37 465.487C438.703 491.154 434.62 517.112 432.87 538.112C429.428 579.411 456.495 594.987 479.245 589.737C495.87 594.987 505.495 550.362 517.745 531.988C531.745 497.862 534.37 479.488 513.37 461.113Z" fill="#E57C17"/>
<path d="M345.12 657.987C395.718 668.319 446.262 646.982 458.245 633.487L458.442 633.308C467.225 625.347 483.6 610.502 480.995 579.237C480.995 553.862 476.959 489.987 464.37 448.862C451.245 405.987 418.87 366.612 350.62 373.612C245.292 377.027 259.073 497.051 263.12 530.237C267.495 566.112 281.872 645.072 345.12 657.987Z" fill="#FFBE2E"/>
<path d="M550.886 552.748C540.536 571.362 485.842 554.981 466.994 544.237C431.204 525.575 418.212 512.806 422.379 486.498C426.545 460.19 453.222 460.654 468.745 474.237C475.745 480.362 514.245 499.612 530.87 504.862C552.745 511.769 566.018 525.531 550.886 552.748Z" fill="#FFBE2E"/>
<path d="M445.12 412.112C419.22 414.912 408.078 396.945 405.745 387.612C416.245 372.212 430.537 375.362 436.37 378.862C448.62 387.612 450.37 392.862 445.12 412.112Z" fill="#E57C17"/>
<path d="M329.646 515.969C329.981 519.82 333.375 522.671 337.226 522.336C341.078 522.001 343.929 518.607 343.594 514.756L329.646 515.969ZM343.594 514.756L341.844 494.631L327.896 495.844L329.646 515.969L343.594 514.756Z" fill="white"/>
<path d="M343.472 514.234C343.815 518.181 347.294 521.103 351.241 520.76C355.189 520.417 358.111 516.938 357.768 512.991L343.472 514.234ZM357.768 512.991L356.018 492.866L341.722 494.109L343.472 514.234L357.768 512.991Z" fill="white"/>
<path d="M308.62 500.487C309.648 512.819 319.12 512.737 324.37 511.862L361.12 508.362C368.995 506.612 375.995 500.487 374.245 491.737C372.555 483.287 365.495 480.362 347.995 482.987L326.995 485.612C316.495 485.612 307.745 489.987 308.62 500.487Z" fill="#FFF9BF"/>
<path d="M347.12 480.362L326.995 482.987C326.995 487.362 330.495 496.987 340.995 494.362C347.995 492.612 348.287 484.446 347.12 480.362Z" fill="#E57C17"/>
<path d="M288.495 484.737C290.537 478.321 297.77 467.937 310.37 477.737" stroke="#793900" stroke-width="6.125" stroke-linecap="round"/>
<path d="M370.745 470.737C372.495 463.737 380.37 457.612 390.87 468.112" stroke="#793900" stroke-width="6.125" stroke-linecap="round"/>
<path d="M375.12 443.612L390.87 443.612" stroke="#E47A17" stroke-width="5.25" stroke-linecap="round"/>
<path d="M286.745 455.862L300.745 450.612" stroke="#E47A17" stroke-width="5.25" stroke-linecap="round"/>
<path d="M299.87 611.612C308.547 648.496 350.912 651.57 371.62 648.362C430.245 642.237 441.62 614.237 437.245 586.237C424.12 544.237 392.62 539.862 340.122 549.487C332.329 550.916 289.372 566.987 299.87 611.612Z" fill="#FFF9BF"/>
<path d="M351.495 613.362L373.37 623.862" stroke="#FFCA57" stroke-width="4.375" stroke-linecap="round"/>
<path d="M354.995 629.112L368.995 610.737" stroke="#FFCA57" stroke-width="4.375" stroke-linecap="round"/>
<path d="M311.479 90.3317C301.282 110.726 333.062 127.373 348.229 132.332C358.729 124.457 366.604 120.957 374.479 111.332C359.604 113.082 324.604 64.082 311.479 90.3317Z" fill="#EB710D"/>
<path d="M461.104 76.3322V95.5823C456.146 119.499 454.454 165.932 487.354 160.332C520.254 154.732 525.562 115.415 524.104 96.4571L524.104 26.4573C485.604 19.4571 462.854 47.4571 461.104 76.3322Z" fill="#EB710D"/>
<path d="M482.979 43.957L468.979 50.0821C484.729 23.832 512.729 23.2487 524.104 26.457V72.832C517.804 72.132 511.562 57.957 509.229 50.957C504.562 60.2904 494.529 79.657 491.729 82.457C484.029 78.957 482.687 55.332 482.979 43.957Z" fill="#FFE5C2"/>
<path d="M468.104 201.457C501.704 172.057 482.104 141.373 468.104 129.707C466.062 116.29 463.729 107.832 461.979 97.332C453.229 91.207 443.604 66.707 445.354 47.457C457.954 26.457 453.52 7.79025 449.729 1.08188C440.104 -3.293 414.729 6.33172 408.604 16.8317C398.804 11.2317 379.729 8.95673 370.979 8.95673C370.104 10.7067 370.104 15.0817 370.104 19.4567C364.854 19.4567 363.104 22.9567 361.354 24.7066C356.979 17.7066 331.604 14.2066 328.104 17.7066C324.604 21.2066 327.229 50.0816 336.854 53.5816C332.654 101.882 354.354 153.04 365.729 172.582C388.479 209.332 405.979 230.332 468.104 201.457Z" fill="#FC821E"/>
<path d="M515.354 196.207C517.979 183.957 513.604 176.082 510.104 174.332C506.604 172.582 501.354 172.582 496.979 169.082C492.604 165.582 486.479 162.082 486.479 162.082C462.854 143.707 442.729 193.582 466.354 202.332C489.979 211.082 512.049 211.631 515.354 196.207Z" fill="#FC821E"/>
<path d="M455.854 225.082V205.832L455.557 205.718C436.764 198.489 424.281 193.687 410.354 213.707C421.729 243.457 431.354 240.832 443.604 239.082C453.404 237.682 455.854 229.165 455.854 225.082Z" fill="#EB710D"/>
<path d="M434.854 47.457H445.354C451.479 38.707 458.479 16.832 450.604 2.83203C436.604 6.33203 422.02 24.707 416.479 33.457C417.062 35.4987 418.929 39.5821 421.729 39.5821C426.629 36.7821 431.645 36.6654 433.979 36.957L434.854 47.457Z" fill="#FFE5C2"/>
<rect x="384.104" y="50.082" width="19.25" height="10.5" rx="5.25" fill="#FFCB90"/>
<rect x="340.354" y="60.7615" width="16.5924" height="10.5" rx="5.25" transform="rotate(-25.6385 340.354 60.7615)" fill="#FFCB90"/>
<path d="M348.229 86.832L357.854 85.082" stroke="#441F00" stroke-width="5.25" stroke-linecap="round"/>
<ellipse cx="396.354" cy="77.207" rx="5.25" ry="7.875" fill="#441F00"/>
<path d="M384.979 101.707C384.979 106.056 381.479 110.457 376.229 109.582C371.88 109.582 368.354 106.056 368.354 101.707C368.354 97.3578 371.88 93.832 376.229 93.832C380.578 93.832 384.979 97.3578 384.979 101.707Z" fill="#FFA896"/>
<path d="M393.204 95.757C393.204 100.686 389.208 104.682 384.279 104.682C379.35 104.682 375.354 100.686 375.354 95.757C371.854 90.332 379.35 86.832 384.279 86.832C389.208 86.832 393.204 90.8279 393.204 95.757Z" fill="white"/>
<circle cx="366.779" cy="97.507" r="8.925" fill="white"/>
<ellipse cx="373.62" cy="89.5859" rx="6.61967" ry="3.74879" transform="rotate(-6.77892 373.62 89.5859)" fill="#451F00"/>
<path d="M428.729 161.207C446.229 187.457 458.77 196.79 467.229 202.332C456.729 209.332 434.854 215.457 411.229 213.707C392.329 212.307 377.104 191.832 364.854 170.832C359.604 134.957 411.228 134.957 428.729 161.207Z" fill="white"/>
<path d="M401.604 192.707L416.479 197.082" stroke="#E5A56B" stroke-width="2.625" stroke-linecap="round"/>
<path d="M412.104 188.332L406.854 200.582" stroke="#E5A56B" stroke-width="2.625" stroke-linecap="round"/>
<path d="M504.854 102.582C490.854 101.182 468.687 96.1654 459.354 93.832C431.354 103.457 451.479 120.957 454.979 124.457C457.53 127.008 496.104 138.457 508.354 133.207C520.604 127.957 522.354 104.332 504.854 102.582Z" fill="#FC821E"/>
</svg>
