<svg width="1069" height="629" viewBox="0 0 1069 629" fill="none" xmlns="http://www.w3.org/2000/svg">
<rect x="763.2" y="60.8" width="46.4" height="225.6" fill="#98B9BB"/>
<rect x="596.799" y="60.8" width="46.4" height="225.6" fill="#A2C1C4"/>
<path fill-rule="evenodd" clip-rule="evenodd" d="M755.999 192.91C758.933 189.444 763.039 180.11 755.999 170.51C739.199 171.31 728.533 175.577 721.599 179.31C719.534 180.492 718.329 180.696 715.999 179.31C715.199 177.977 714.399 173.71 718.399 170.51C722.369 167.334 697.182 164.838 678.815 182.007C631.804 193.03 596.799 235.227 596.799 285.6V489.6H809.599V285.6C809.599 245.925 787.883 211.321 755.689 193.027C755.792 192.988 755.896 192.949 755.999 192.91Z" fill="#A2C1C4"/>
<path d="M649.599 544H713.599V595.2C713.599 612.873 699.272 627.2 681.599 627.2C663.926 627.2 649.599 612.873 649.599 595.2V544Z" fill="#A2C1C4"/>
<path d="M716.799 545.6H777.599V598.4C777.599 615.19 763.989 628.8 747.199 628.8C730.41 628.8 716.799 615.19 716.799 598.4V545.6Z" fill="#A2C1C4"/>
<rect x="649.599" y="540.8" width="64" height="49.6" fill="#B9D300"/>
<rect x="716.799" y="542.4" width="60.8" height="51.2" fill="#B9D300"/>
<path d="M657.599 579.2C613.599 575.2 597.066 525.867 596.799 502.4V489.6H819.199V503.2C813.439 562.08 779.999 576 760.799 579.2C745.866 579.733 704.319 580.48 657.599 579.2Z" fill="#CCE70C"/>
<path fill-rule="evenodd" clip-rule="evenodd" d="M793.6 489.6C802.133 490.667 815.523 495.53 809.599 509.6C803.199 524.8 799.199 527.2 781.599 516C777.866 511.467 770.559 505.92 771.199 520C771.999 537.6 770.399 541.6 751.199 533.6C731.999 525.6 729.599 520 744.799 511.2C750.666 507.733 757.599 501.28 738.399 503.2C717.35 505.305 716.608 503.102 713.506 493.894C713.071 492.603 712.589 491.174 711.999 489.6H793.6ZM607.999 489.6L657.599 489.6C655.732 490.134 653.119 492.32 657.599 496.8C662.079 501.28 666.933 503.467 668.799 504C673.066 506.133 676.799 508.8 669.599 518.4C665.599 522.4 663.199 524.8 656.799 527.2C656.711 527.232 656.622 527.264 656.533 527.296L656.533 527.296L656.533 527.296C652.863 528.614 648.686 530.115 643.999 518.4C639.199 508 631.999 502.4 633.599 521.6C634.666 528.533 632.799 539.52 616.799 528C596.799 513.6 597.599 512.8 607.199 507.2C616.799 501.6 612.799 494.4 607.999 489.6C607.999 489.6 607.999 489.6 607.999 489.6ZM706.535 579.903C691.886 579.873 675.463 579.682 658.327 579.22C657.829 577.721 656.817 576.279 655.199 575.2C643.999 568.8 643.999 567.2 651.999 557.6C659.999 548 671.999 545.6 672.799 555.2L672.833 555.6C673.6 564.823 673.667 565.623 678.399 567.2C682.239 568.48 684.799 558.667 685.599 553.6C685.599 545.6 687.999 539.2 711.199 548.8C723.597 557.754 717.612 561.964 711.113 566.535C710.063 567.274 709 568.021 707.999 568.8C702.239 573.28 708.266 577.6 711.999 579.2L706.535 579.903ZM796.579 560.52C785.078 572.586 771.6 577.268 761.64 579.055C760.84 578.866 760.026 578.648 759.199 578.4C760.799 576.267 763.519 571.04 761.599 567.2C759.199 562.4 761.599 558.4 781.599 555.2C784.799 554.4 797.599 551.2 796.799 559.2C796.758 559.614 796.684 560.055 796.579 560.52Z" fill="#BE8FFE"/>
<path d="M699.453 413.396C666.399 422.4 651.999 447.2 654.4 478.136V489.6H819.2V477.461C814.931 427.827 797.599 420 775.925 413.396C769.599 410.4 726.399 408 699.453 413.396Z" fill="white"/>
<path d="M1059.2 84.8C1064.5 84.8 1068.8 80.5019 1068.8 75.2C1068.8 69.8981 1064.5 65.6 1059.2 65.6V84.8ZM0 84.8H1059.2V65.6H0V84.8Z" fill="#FFC343"/>
<path d="M668.191 82.2401H700.111C721.615 105.536 720.271 123.307 716.911 129.28C706.271 100.72 683.684 88.7734 668.191 82.2401Z" fill="#FFC343"/>
<path d="M240 84.8H213.6C200 102.4 203.052 122.324 205.6 127.2C213.668 103.886 227.2 89.6 240 84.8Z" fill="#FFC343"/>
<path d="M856 65.6H886.254C909.6 44.8 907.185 22.8953 904 16.8C893.915 45.9429 870.684 58.9334 856 65.6Z" fill="#FFC343"/>
<path d="M694.512 103.52C699.925 115.84 702.576 141.376 669.872 144.96C655.312 122 682.752 100.72 694.512 103.52Z" fill="#A7BF01"/>
<path d="M882.958 42.9423C888.628 30.1757 891.404 3.71399 857.153 7.24792e-05C841.905 23.7924 870.642 45.8438 882.958 42.9423Z" fill="#A7BF01"/>
<path d="M228.086 95.6976C222.147 109.883 233.6 136.8 264.8 133.6C271.2 100 240.988 92.4738 228.086 95.6976Z" fill="#A7BF01"/>
<path d="M706.831 102.4C721.796 99.3318 750.807 102.84 746.981 139.991C718.025 150.672 700.918 114.784 706.831 102.4Z" fill="#A7BF01"/>
<path d="M895.058 44.2364C910.612 47.4255 940.766 43.7795 936.789 5.16465C906.692 -5.93695 888.911 31.365 895.058 44.2364Z" fill="#A7BF01"/>
<path d="M215.2 99.2C195.991 98.017 161.464 110.335 172.8 156C210.806 164.207 224.764 113.602 215.2 99.2Z" fill="#A7BF01"/>
<rect x="588.799" y="41.6" width="62.4" height="36.8" rx="18.4" fill="#A2C1C4"/>
<rect x="756.799" y="41.6" width="62.4" height="36.8" rx="18.4" fill="#98B9BB"/>
<ellipse cx="723.518" cy="303.898" rx="80.7673" ry="49.268" transform="rotate(-1.42646 723.518 303.898)" fill="white"/>
<path d="M669.599 268C652.959 273.76 649.599 278.4 651.199 284C676.799 292.8 719.999 264.8 701.599 256C683.199 247.2 674.399 252.8 682.399 260C668.799 255.2 659.999 268 669.599 268Z" fill="white"/>
<path d="M777.254 268.245C791.199 272 793.599 278.4 794.857 283.218C770.366 291.454 729.038 263.65 746.64 255.414C764.243 247.179 769.599 255.414 765.009 260.758C775.999 255.2 785.599 268.245 777.254 268.245Z" fill="white"/>
<ellipse cx="677.6" cy="306.4" rx="10.4" ry="15.2" fill="#3B3B3B"/>
<ellipse cx="768.8" cy="306.4" rx="10.4" ry="15.2" fill="#3B3B3B"/>
<ellipse cx="726.399" cy="317.6" rx="12.8" ry="8" fill="#3B3B3B"/>
<path d="M740.8 332.8H712C712.533 338.133 714.4 346.4 726.4 346.4C738.4 346.4 740.8 337.067 740.8 332.8Z" fill="#FCA291"/>
</svg>
