<svg width="373" height="367" viewBox="0 0 373 367" fill="none" xmlns="http://www.w3.org/2000/svg">
<path d="M194.403 329.266L196.446 311.642C199.384 286.308 126.807 285.745 131.245 305.237C135.683 324.729 146.12 351.612 171.303 345.565C187.783 341.607 193.764 334.773 194.403 329.266Z" fill="#FFA01F"/>
<path d="M68.2452 216.862L75.2451 202.862C83.9952 183.612 70.6448 173.832 62.1203 163.913C56.8701 161.737 37.6203 159.112 27.9952 163.913C16.6202 172.214 13.1201 187.112 20.1202 202.862C27.9951 216.862 52.4949 216.862 68.2451 216.862L68.2452 216.862Z" fill="#FFA01F"/>
<path d="M310.62 261.487C307.708 248.383 292.245 243.987 279.224 234.28C248.075 234.488 246.142 273.83 248.495 290.362C250.933 291.23 262.495 299.987 279.224 302.612C306.245 306.852 314.12 277.237 310.62 261.487Z" fill="#FFBE2E"/>
<path d="M98.8701 47.1122C100.462 73.1144 80.5406 84.3767 71.1088 86.2732C56.2141 75.0679 59.2273 59.7763 62.995 54.1122C73.4949 42.7372 79.8853 40.972 98.8701 47.1122Z" fill="#E57C17"/>
<path d="M312.37 110.113C296.37 96.1127 270.37 104.862 263.37 114.487C237.703 140.154 233.62 166.112 231.87 187.112C228.428 228.411 255.495 243.987 278.245 238.737C294.87 243.987 304.495 199.362 316.745 180.988C330.745 146.862 333.37 128.488 312.37 110.113Z" fill="#E57C17"/>
<path d="M144.12 306.987C194.718 317.319 245.262 295.982 257.245 282.487L257.442 282.308C266.225 274.347 282.6 259.502 279.995 228.237C279.995 202.862 275.959 138.987 263.37 97.8621C250.245 54.9871 217.87 15.6121 149.62 22.6121C44.2917 26.0275 58.0729 146.051 62.12 179.237C66.495 215.112 80.8716 294.072 144.12 306.987Z" fill="#FFBE2E"/>
<path d="M349.886 201.748C339.536 220.362 284.842 203.981 265.994 193.237C230.204 174.575 217.212 161.806 221.379 135.498C225.545 109.19 252.222 109.654 267.745 123.237C274.745 129.362 313.245 148.612 329.87 153.862C351.745 160.769 365.018 174.531 349.886 201.748Z" fill="#FFBE2E"/>
<path d="M244.12 61.1121C218.22 63.9121 207.078 45.9454 204.745 36.6121C215.245 21.2121 229.537 24.3621 235.37 27.8621C247.62 36.6121 249.37 41.8621 244.12 61.1121Z" fill="#E57C17"/>
<path d="M128.646 164.969C128.981 168.82 132.375 171.671 136.226 171.336C140.078 171.001 142.929 167.607 142.594 163.756L128.646 164.969ZM142.594 163.756L140.844 143.631L126.896 144.844L128.646 164.969L142.594 163.756Z" fill="white"/>
<path d="M142.472 163.234C142.815 167.181 146.294 170.103 150.241 169.76C154.189 169.417 157.111 165.938 156.768 161.991L142.472 163.234ZM156.768 161.991L155.018 141.866L140.722 143.109L142.472 163.234L156.768 161.991Z" fill="white"/>
<path d="M107.62 149.487C108.648 161.819 118.12 161.737 123.37 160.862L160.12 157.362C167.995 155.612 174.995 149.487 173.245 140.737C171.555 132.287 164.495 129.362 146.995 131.987L125.995 134.612C115.495 134.612 106.745 138.987 107.62 149.487Z" fill="#FFF9BF"/>
<path d="M146.12 129.362L125.995 131.987C125.995 136.362 129.495 145.987 139.995 143.362C146.995 141.612 147.287 133.445 146.12 129.362Z" fill="#E57C17"/>
<path d="M87.495 133.737C89.5367 127.321 96.77 116.937 109.37 126.737" stroke="#793900" stroke-width="6.125" stroke-linecap="round"/>
<path d="M169.745 119.737C171.495 112.737 179.37 106.612 189.87 117.112" stroke="#793900" stroke-width="6.125" stroke-linecap="round"/>
<path d="M174.12 92.6122L189.87 92.6122" stroke="#E47A17" stroke-width="5.25" stroke-linecap="round"/>
<path d="M85.7451 104.862L99.7451 99.6122" stroke="#E47A17" stroke-width="5.25" stroke-linecap="round"/>
<path d="M98.8701 260.612C107.547 297.496 149.912 300.57 170.62 297.362C229.245 291.237 240.62 263.237 236.245 235.237C223.12 193.237 191.62 188.862 139.122 198.487C131.329 199.916 88.3722 215.987 98.8701 260.612Z" fill="#FFF9BF"/>
<path d="M150.495 262.362L172.37 272.862" stroke="#FFCA57" stroke-width="4.375" stroke-linecap="round"/>
<path d="M153.995 278.112L167.995 259.737" stroke="#FFCA57" stroke-width="4.375" stroke-linecap="round"/>
</svg>
